<svg width="709" height="989" viewBox="0 0 709 989" fill="none" xmlns="http://www.w3.org/2000/svg">
<path d="M295.726 703.794C161.834 577.061 60.3165 319.995 217.407 202.992C363.055 94.5104 412.5 241.925 572.69 181.499C732.879 121.074 688.766 -119.351 867.09 -153.609C970.594 -173.493 1084.91 -105.153 1133.41 23.5667C1181.9 152.287 1164.58 341.387 1004.81 563.023C853.886 772.384 696.06 825.982 566.243 818.039C436.426 810.095 334.617 740.607 295.726 703.794Z" stroke="#025E73" stroke-width="2.10293" stroke-miterlimit="10"/>
<path d="M987.14 560.608C848.995 752.837 704.209 803.001 584.642 796.352C465.878 789.555 372.326 726.66 335.562 692.623C210.803 576.374 115.811 339.221 257.323 227.959C387.986 125.225 434.733 254.815 581.769 198.125C585.95 196.497 589.986 194.742 593.886 192.869C699.558 142.181 704.699 3.45702 780.446 -67.3178C801.008 -86.5301 826.697 -100.858 860.85 -106.994C959.091 -124.643 1064.49 -60.4908 1108.58 58.8041C1152.76 178.739 1134.88 354.648 987.14 560.608Z" stroke="#025E73" stroke-width="2.10293" stroke-miterlimit="10"/>
<path d="M969.47 558.193C844.105 733.29 712.358 780.019 603.039 774.665C495.329 769.016 409.932 712.828 375.401 681.452C259.421 576.071 171.294 358.484 297.239 252.926C412.912 155.975 457.152 268.169 590.85 214.748C594.703 213.209 598.418 211.532 602.021 209.765C699.351 162.148 708.199 37.4595 779.645 -25.2918C799.154 -42.4262 823.172 -55.176 854.612 -60.3802C947.603 -75.773 1044.07 -15.829 1083.76 94.042C1123.61 205.19 1105.18 367.907 969.47 558.193Z" stroke="#025E73" stroke-width="2.10293" stroke-miterlimit="10"/>
<path d="M951.8 555.779C839.214 713.744 720.494 757.314 621.437 752.978C524.768 748.746 447.599 698.934 415.238 670.281C308.251 575.55 226.767 377.798 337.154 277.893C437.834 186.774 479.472 281.255 599.93 231.372C603.453 229.913 606.851 228.322 610.154 226.661C699.143 182.114 711.724 71.4696 778.843 16.7347C797.304 1.67972 819.654 -9.47686 848.373 -13.7665C936.132 -26.8738 1023.65 28.8321 1058.93 129.279C1094.47 231.642 1075.48 381.168 951.8 555.779Z" stroke="#025E73" stroke-width="2.10293" stroke-miterlimit="10"/>
<path d="M934.129 553.364C834.616 694.404 728.641 734.412 639.834 731.291C554.217 728.281 485.271 685.034 455.073 659.108C357.111 575.004 282.231 397.179 377.068 302.86C462.757 217.638 501.784 294.306 609.008 247.996C612.201 246.617 615.282 245.112 618.287 243.557C698.933 202.08 715.283 105.491 778.039 58.7605C795.462 45.787 816.14 36.2432 842.132 32.8473C924.678 22.0628 1003.46 73.415 1034.11 164.516C1065.56 258.013 1046.11 394.661 934.129 553.364Z" stroke="#025E73" stroke-width="2.10293" stroke-miterlimit="10"/>
<path d="M916.459 550.95C829.773 674.889 736.792 711.501 658.231 709.604C583.67 707.803 522.955 671.127 494.91 647.937C406.011 574.425 337.702 416.657 416.984 327.826C487.699 248.594 524.089 307.313 618.089 264.62C620.952 263.319 623.715 261.901 626.421 260.453C698.727 222.046 718.885 139.535 777.238 100.787C793.634 89.8992 812.636 81.9889 835.894 79.4613C913.249 71.0542 983.078 118.068 1009.28 199.753C1036.46 284.456 1016.47 407.963 916.459 550.95Z" stroke="#025E73" stroke-width="2.10293" stroke-miterlimit="10"/>
<path d="M898.789 548.535C824.912 655.36 744.946 688.574 676.629 687.916C613.126 687.306 560.652 657.208 534.748 636.765C454.959 573.8 393.209 436.27 456.901 352.793C512.688 279.677 546.377 320.262 627.17 281.245C629.702 280.022 632.148 278.691 634.556 277.35C698.52 242.014 722.539 173.618 776.437 142.813C791.82 134.021 809.138 127.767 829.655 126.076C901.842 120.123 962.68 162.728 984.458 234.991C1007.34 310.905 986.814 421.253 898.789 548.535Z" stroke="#025E73" stroke-width="2.10293" stroke-miterlimit="10"/>
<path d="M881.12 546.12C820.024 635.811 753.105 665.62 695.027 666.229C642.586 666.779 598.368 643.27 574.585 625.594C503.97 573.108 444.665 453.36 496.817 377.759C541.328 313.234 568.635 333.128 636.25 297.868C638.451 296.72 640.58 295.481 642.691 294.246C698.314 261.979 726.254 207.765 775.637 184.838C790.023 178.159 805.649 173.584 823.417 172.689C890.457 169.309 942.261 207.397 959.634 270.228C978.198 337.363 957.135 434.525 881.12 546.12Z" stroke="#025E73" stroke-width="2.10293" stroke-miterlimit="10"/>
<path d="M863.449 543.706C815.095 616.234 761.267 642.62 713.424 644.542C672.049 646.205 636.109 629.302 614.422 614.422C553.058 572.32 504.683 476.079 536.732 402.727C563.103 342.371 590.842 345.879 645.33 314.492C647.198 313.416 649.012 312.27 650.824 311.142C698.105 281.946 730.026 242.021 774.835 226.865C788.241 222.33 802.16 219.454 817.178 219.303C879.083 218.681 921.808 252.076 934.81 305.465C949.024 363.832 927.413 447.764 863.449 543.706Z" stroke="#025E73" stroke-width="2.10293" stroke-miterlimit="10"/>
<path d="M845.779 541.291C810.099 596.611 769.429 619.522 731.821 622.855C701.51 625.543 673.885 615.276 654.259 603.251C602.242 571.378 561.084 496.251 576.648 427.693C588.852 373.938 612.949 358.464 654.41 331.116C655.942 330.106 657.444 329.06 658.959 328.038C697.898 301.912 733.827 276.447 774.033 268.891C786.47 266.553 798.667 265.388 810.939 265.916C867.695 268.361 901.302 296.767 909.985 340.702C919.79 390.314 897.601 460.944 845.779 541.291Z" stroke="#025E73" stroke-width="2.10293" stroke-miterlimit="10"/>
<path d="M616.564 452.661C615.165 403.331 636.495 367.99 667.093 344.935C697.691 321.879 737.557 311.108 773.231 310.918C846.429 310.528 879.877 335.074 885.161 375.939C890.445 416.805 867.566 473.99 828.11 538.876C788.655 603.763 736.67 613.973 694.097 592.079C651.524 570.186 618.365 516.189 616.564 452.661Z" stroke="#025E73" stroke-width="2.10293" stroke-miterlimit="10"/>
</svg>
