<?xml version="1.0" encoding="UTF-8"?>
<svg id="Capa_1" data-name="Capa 1" xmlns="http://www.w3.org/2000/svg" viewBox="0 0 1080 316">
  <g>
    <text transform="translate(256.81 162.02)" style="fill: #025e73; font-family: OpenRunde-Bold, &apos;Open Runde&apos;; font-size: 112.01px; font-weight: 700;"><tspan x="0" y="0">a</tspan><tspan x="65" y="0" style="letter-spacing: -.03em;">r</tspan><tspan x="107.92" y="0" style="letter-spacing: 0em;">eer</tspan></text>
    <path d="m230.86,82.83l-13.22,22.45c-2.92,4.96-9.62,6.05-13.97,2.29-17.09-14.75-37.45-17.78-59.52-11.68-26.05,7.2-41,25.85-44.52,52.42-3.52,26.6,5.03,49.38,28.04,64.15,23.51,15.08,48.25,13.84,71.61-.98,7.43-4.71,14.47-11.4,19.19-18.79,19.16-29.99,61.07-28.66,66.48-26.76-14.72,22.04,5.83-7.97-8.36,14.45-10.34,16.35-20.16,33.32-32.62,47.98-28.47,33.5-65.66,44.98-108.11,34.92-41.25-9.77-67.35-36.78-78.23-77.68-12.22-45.92,5.29-92.07,44.09-118.57,35.57-24.3,88.13-23.69,123.76,1.49,1.1.78,2.16,1.6,3.24,2.48,3.54,2.87,4.44,7.91,2.12,11.84Z" style="fill: #025e73; stroke-width: 0px;"/>
  </g>
  <g>
    <text transform="translate(756.74 163.81)" style="fill: #025e73; font-family: OpenRunde-Bold, &apos;Open Runde&apos;; font-size: 112.01px; font-weight: 700;"><tspan x="0" y="0">oach</tspan></text>
    <path d="m734.74,82.83l-13.22,22.45c-2.92,4.96-9.62,6.05-13.97,2.29-17.09-14.75-37.45-17.78-59.52-11.68-26.05,7.2-41,25.85-44.52,52.42-3.52,26.6,5.03,49.38,28.04,64.15,23.51,15.08,48.25,13.84,71.61-.98,7.43-4.71,14.47-11.4,19.19-18.79,19.16-29.99,61.07-28.66,66.48-26.76-14.72,22.04,5.83-7.97-8.36,14.45-10.34,16.35-20.16,33.32-32.62,47.98-28.47,33.5-65.66,44.98-108.11,34.92-41.25-9.77-67.35-36.78-78.23-77.68-12.22-45.92,5.29-92.07,44.09-118.57,35.57-24.3,88.13-23.69,123.76,1.49,1.1.78,2.16,1.6,3.24,2.48,3.54,2.87,4.44,7.91,2.12,11.84Z" style="fill: #025e73; stroke-width: 0px;"/>
  </g>
</svg>